<svg width="44" height="44" viewBox="0 0 44 44" fill="none" xmlns="http://www.w3.org/2000/svg">
<circle cx="22" cy="22" r="22" fill="#28CA6C"/>
<path d="M13.5484 21.052C12.3484 20.428 11.7484 19.462 11.7484 18.154C11.7484 17.506 11.9104 16.918 12.2344 16.39C12.5704 15.85 13.0684 15.424 13.7284 15.112C14.4004 14.788 15.2164 14.626 16.1764 14.626C17.1364 14.626 17.9464 14.788 18.6064 15.112C19.2784 15.424 19.7764 15.85 20.1004 16.39C20.4364 16.918 20.6044 17.506 20.6044 18.154C20.6044 18.814 20.4424 19.396 20.1184 19.9C19.7944 20.392 19.3624 20.776 18.8224 21.052C19.4824 21.34 19.9984 21.76 20.3704 22.312C20.7424 22.864 20.9284 23.518 20.9284 24.274C20.9284 25.09 20.7184 25.804 20.2984 26.416C19.8904 27.016 19.3264 27.478 18.6064 27.802C17.8864 28.126 17.0764 28.288 16.1764 28.288C15.2764 28.288 14.4664 28.126 13.7464 27.802C13.0384 27.478 12.4744 27.016 12.0544 26.416C11.6464 25.804 11.4424 25.09 11.4424 24.274C11.4424 23.518 11.6284 22.864 12.0004 22.312C12.3724 21.748 12.8884 21.328 13.5484 21.052ZM18.1564 18.514C18.1564 17.926 17.9764 17.47 17.6164 17.146C17.2684 16.822 16.7884 16.66 16.1764 16.66C15.5764 16.66 15.0964 16.822 14.7364 17.146C14.3884 17.47 14.2144 17.932 14.2144 18.532C14.2144 19.072 14.3944 19.504 14.7544 19.828C15.1264 20.152 15.6004 20.314 16.1764 20.314C16.7524 20.314 17.2264 20.152 17.5984 19.828C17.9704 19.492 18.1564 19.054 18.1564 18.514ZM16.1764 22.15C15.4924 22.15 14.9344 22.324 14.5024 22.672C14.0824 23.02 13.8724 23.518 13.8724 24.166C13.8724 24.766 14.0764 25.258 14.4844 25.642C14.9044 26.014 15.4684 26.2 16.1764 26.2C16.8844 26.2 17.4424 26.008 17.8504 25.624C18.2584 25.24 18.4624 24.754 18.4624 24.166C18.4624 23.53 18.2524 23.038 17.8324 22.69C17.4124 22.33 16.8604 22.15 16.1764 22.15ZM22.9188 21.268C22.9188 19.192 23.2908 17.566 24.0348 16.39C24.7908 15.214 26.0388 14.626 27.7788 14.626C29.5188 14.626 30.7608 15.214 31.5048 16.39C32.2608 17.566 32.6388 19.192 32.6388 21.268C32.6388 23.356 32.2608 24.994 31.5048 26.182C30.7608 27.37 29.5188 27.964 27.7788 27.964C26.0388 27.964 24.7908 27.37 24.0348 26.182C23.2908 24.994 22.9188 23.356 22.9188 21.268ZM30.1548 21.268C30.1548 20.38 30.0948 19.636 29.9748 19.036C29.8668 18.424 29.6388 17.926 29.2908 17.542C28.9548 17.158 28.4508 16.966 27.7788 16.966C27.1068 16.966 26.5968 17.158 26.2488 17.542C25.9128 17.926 25.6848 18.424 25.5648 19.036C25.4568 19.636 25.4028 20.38 25.4028 21.268C25.4028 22.18 25.4568 22.948 25.5648 23.572C25.6728 24.184 25.9008 24.682 26.2488 25.066C26.5968 25.438 27.1068 25.624 27.7788 25.624C28.4508 25.624 28.9608 25.438 29.3088 25.066C29.6568 24.682 29.8848 24.184 29.9928 23.572C30.1008 22.948 30.1548 22.18 30.1548 21.268Z" fill="white"/>
</svg>
