<svg width="44" height="44" viewBox="0 0 44 44" fill="none" xmlns="http://www.w3.org/2000/svg">
<circle cx="22" cy="22" r="22" fill="#28CA6C"/>
<path d="M13.5748 21.052C12.3748 20.428 11.7748 19.462 11.7748 18.154C11.7748 17.506 11.9368 16.918 12.2608 16.39C12.5968 15.85 13.0948 15.424 13.7548 15.112C14.4268 14.788 15.2428 14.626 16.2028 14.626C17.1628 14.626 17.9728 14.788 18.6328 15.112C19.3048 15.424 19.8028 15.85 20.1268 16.39C20.4628 16.918 20.6308 17.506 20.6308 18.154C20.6308 18.814 20.4688 19.396 20.1448 19.9C19.8208 20.392 19.3888 20.776 18.8488 21.052C19.5088 21.34 20.0248 21.76 20.3968 22.312C20.7688 22.864 20.9548 23.518 20.9548 24.274C20.9548 25.09 20.7448 25.804 20.3248 26.416C19.9168 27.016 19.3528 27.478 18.6328 27.802C17.9128 28.126 17.1028 28.288 16.2028 28.288C15.3028 28.288 14.4928 28.126 13.7728 27.802C13.0648 27.478 12.5008 27.016 12.0808 26.416C11.6728 25.804 11.4688 25.09 11.4688 24.274C11.4688 23.518 11.6548 22.864 12.0268 22.312C12.3988 21.748 12.9148 21.328 13.5748 21.052ZM18.1828 18.514C18.1828 17.926 18.0028 17.47 17.6428 17.146C17.2948 16.822 16.8148 16.66 16.2028 16.66C15.6028 16.66 15.1228 16.822 14.7628 17.146C14.4148 17.47 14.2408 17.932 14.2408 18.532C14.2408 19.072 14.4208 19.504 14.7808 19.828C15.1528 20.152 15.6268 20.314 16.2028 20.314C16.7788 20.314 17.2528 20.152 17.6248 19.828C17.9968 19.492 18.1828 19.054 18.1828 18.514ZM16.2028 22.15C15.5188 22.15 14.9608 22.324 14.5288 22.672C14.1088 23.02 13.8988 23.518 13.8988 24.166C13.8988 24.766 14.1028 25.258 14.5108 25.642C14.9308 26.014 15.4948 26.2 16.2028 26.2C16.9108 26.2 17.4688 26.008 17.8768 25.624C18.2848 25.24 18.4888 24.754 18.4888 24.166C18.4888 23.53 18.2788 23.038 17.8588 22.69C17.4388 22.33 16.8868 22.15 16.2028 22.15ZM31.7652 17.056H25.9332V20.134C26.1852 19.822 26.5452 19.57 27.0132 19.378C27.4812 19.174 27.9792 19.072 28.5072 19.072C29.4672 19.072 30.2532 19.282 30.8652 19.702C31.4772 20.122 31.9212 20.662 32.1972 21.322C32.4732 21.97 32.6112 22.666 32.6112 23.41C32.6112 24.79 32.2152 25.9 31.4232 26.74C30.6432 27.58 29.5272 28 28.0752 28C26.7072 28 25.6152 27.658 24.7992 26.974C23.9832 26.29 23.5212 25.396 23.4132 24.292H25.8612C25.9692 24.772 26.2092 25.156 26.5812 25.444C26.9652 25.732 27.4512 25.876 28.0392 25.876C28.7472 25.876 29.2812 25.654 29.6412 25.21C30.0012 24.766 30.1812 24.178 30.1812 23.446C30.1812 22.702 29.9952 22.138 29.6232 21.754C29.2632 21.358 28.7292 21.16 28.0212 21.16C27.5172 21.16 27.0972 21.286 26.7612 21.538C26.4252 21.79 26.1852 22.126 26.0412 22.546H23.6292V14.842H31.7652V17.056Z" fill="white"/>
</svg>
