<svg width="60" height="60" viewBox="0 0 60 60" fill="none" xmlns="http://www.w3.org/2000/svg">
<path opacity="0.5" d="M60 30C60 46.5685 46.5685 60 30 60C13.4315 60 0 46.5685 0 30C0 13.4315 13.4315 0 30 0C46.5685 0 60 13.4315 60 30ZM6 30C6 43.2548 16.7452 54 30 54C43.2548 54 54 43.2548 54 30C54 16.7452 43.2548 6 30 6C16.7452 6 6 16.7452 6 30Z" fill="#AFB3C1"/>
<path d="M30 3C30 1.34315 28.6535 -0.0155514 27.0049 0.149847C21.419 0.710268 16.0803 2.82998 11.6128 6.29535C6.35208 10.376 2.59824 16.0906 0.942506 22.5393C-0.713229 28.988 -0.176781 35.8042 2.46736 41.9144C5.1115 48.0247 9.71309 53.0818 15.5474 56.2892C21.3817 59.4966 28.1172 60.6722 34.693 59.6306C41.2689 58.5891 47.3115 55.3898 51.8691 50.5364C56.4267 45.6831 59.2403 39.4515 59.8669 32.8233C60.3989 27.1944 59.3281 21.551 56.8082 16.5344C56.0645 15.0538 54.1958 14.6449 52.7969 15.5327C51.3979 16.4205 51.0027 18.2682 51.7091 19.7669C53.5363 23.6431 54.3002 27.9562 53.8935 32.2586C53.3922 37.5612 51.1413 42.5465 47.4952 46.4291C43.8492 50.3118 39.0151 52.8713 33.7544 53.7045C28.4937 54.5377 23.1053 53.5973 18.4379 51.0314C13.7705 48.4654 10.0892 44.4197 7.97389 39.5315C5.85858 34.6433 5.42942 29.1904 6.754 24.0314C8.07859 18.8725 11.0817 14.3008 15.2902 11.0363C18.705 8.38752 22.756 6.72148 27.0077 6.18723C28.6517 5.98066 30 4.65685 30 3Z" fill="#458CFF"/>
<path d="M21.61 29.052C20.41 28.428 19.81 27.462 19.81 26.154C19.81 25.506 19.972 24.918 20.296 24.39C20.632 23.85 21.13 23.424 21.79 23.112C22.462 22.788 23.278 22.626 24.238 22.626C25.198 22.626 26.008 22.788 26.668 23.112C27.34 23.424 27.838 23.85 28.162 24.39C28.498 24.918 28.666 25.506 28.666 26.154C28.666 26.814 28.504 27.396 28.18 27.9C27.856 28.392 27.424 28.776 26.884 29.052C27.544 29.34 28.06 29.76 28.432 30.312C28.804 30.864 28.99 31.518 28.99 32.274C28.99 33.09 28.78 33.804 28.36 34.416C27.952 35.016 27.388 35.478 26.668 35.802C25.948 36.126 25.138 36.288 24.238 36.288C23.338 36.288 22.528 36.126 21.808 35.802C21.1 35.478 20.536 35.016 20.116 34.416C19.708 33.804 19.504 33.09 19.504 32.274C19.504 31.518 19.69 30.864 20.062 30.312C20.434 29.748 20.95 29.328 21.61 29.052ZM26.218 26.514C26.218 25.926 26.038 25.47 25.678 25.146C25.33 24.822 24.85 24.66 24.238 24.66C23.638 24.66 23.158 24.822 22.798 25.146C22.45 25.47 22.276 25.932 22.276 26.532C22.276 27.072 22.456 27.504 22.816 27.828C23.188 28.152 23.662 28.314 24.238 28.314C24.814 28.314 25.288 28.152 25.66 27.828C26.032 27.492 26.218 27.054 26.218 26.514ZM24.238 30.15C23.554 30.15 22.996 30.324 22.564 30.672C22.144 31.02 21.934 31.518 21.934 32.166C21.934 32.766 22.138 33.258 22.546 33.642C22.966 34.014 23.53 34.2 24.238 34.2C24.946 34.2 25.504 34.008 25.912 33.624C26.32 33.24 26.524 32.754 26.524 32.166C26.524 31.53 26.314 31.038 25.894 30.69C25.474 30.33 24.922 30.15 24.238 30.15ZM37.7844 26.154C37.6644 25.65 37.4544 25.272 37.1544 25.02C36.8664 24.768 36.4464 24.642 35.8944 24.642C35.0664 24.642 34.4544 24.978 34.0584 25.65C33.6744 26.31 33.4764 27.39 33.4644 28.89C33.7524 28.41 34.1724 28.038 34.7244 27.774C35.2764 27.498 35.8764 27.36 36.5244 27.36C37.3044 27.36 37.9944 27.528 38.5944 27.864C39.1944 28.2 39.6624 28.692 39.9984 29.34C40.3344 29.976 40.5024 30.744 40.5024 31.644C40.5024 32.496 40.3284 33.258 39.9804 33.93C39.6444 34.59 39.1464 35.106 38.4864 35.478C37.8264 35.85 37.0404 36.036 36.1284 36.036C34.8804 36.036 33.8964 35.76 33.1764 35.208C32.4684 34.656 31.9704 33.888 31.6824 32.904C31.4064 31.908 31.2684 30.684 31.2684 29.232C31.2684 27.036 31.6464 25.38 32.4024 24.264C33.1584 23.136 34.3524 22.572 35.9844 22.572C37.2444 22.572 38.2224 22.914 38.9184 23.598C39.6144 24.282 40.0164 25.134 40.1244 26.154H37.7844ZM35.9484 29.43C35.3124 29.43 34.7784 29.616 34.3464 29.988C33.9144 30.36 33.6984 30.9 33.6984 31.608C33.6984 32.316 33.8964 32.874 34.2924 33.282C34.7004 33.69 35.2704 33.894 36.0024 33.894C36.6504 33.894 37.1604 33.696 37.5324 33.3C37.9164 32.904 38.1084 32.37 38.1084 31.698C38.1084 31.002 37.9224 30.45 37.5504 30.042C37.1904 29.634 36.6564 29.43 35.9484 29.43Z" fill="#458CFF"/>
</svg>
