<svg width="50" height="33" viewBox="0 0 50 33" fill="none" xmlns="http://www.w3.org/2000/svg">
<g id="Frame" clip-path="url(#clip0_182_564)">
<g id="Group">
<path id="Vector" d="M5.79877 22.1873C5.78892 21.9504 5.91363 21.7569 6.0088 21.5567C7.38055 18.6775 8.7523 15.7982 10.1339 12.9256C10.5474 12.0614 11.125 11.9647 11.8207 12.622C13.4189 14.1433 15.0105 15.6681 16.6021 17.1961C17.137 17.7099 17.1666 17.8934 16.8581 18.5774C16.274 19.8719 15.7193 21.1831 15.0893 22.4542C14.492 23.662 13.642 24.7129 12.8675 25.8073C12.582 26.211 12.3162 26.221 11.7518 25.9607C10.5868 25.4236 9.42833 24.8731 8.26989 24.3259C7.73497 24.0724 7.21646 23.7688 6.66185 23.5819C5.95957 23.345 5.83158 22.8146 5.79877 22.1873Z" fill="#F0AE00"/>
<path id="Vector_2" d="M36.7813 23.788C36.4039 23.8047 36.1906 23.5244 35.9773 23.2442C34.9862 21.9363 33.9952 20.6285 33.0041 19.3206C32.7776 19.0237 32.5545 18.7267 32.328 18.4298C31.78 17.7125 31.757 17.3021 32.269 16.5347C32.9844 15.4571 33.7096 14.3828 34.4316 13.3118C35.0715 12.3609 35.7016 11.4067 36.358 10.4692C36.8535 9.75857 37.1981 9.73188 37.7593 10.3691C39.3049 12.1207 40.8408 13.879 42.3668 15.6473C42.8393 16.1944 43.1478 16.8617 43.5055 17.4856C43.7877 17.9794 43.7484 18.2163 43.3152 18.5966C42.4226 19.384 41.5168 20.1547 40.6111 20.9254C39.6495 21.7461 38.6814 22.5569 37.7232 23.381C37.4541 23.6078 37.1817 23.8147 36.7813 23.788Z" fill="#F0AE00"/>
<path id="Vector_3" d="M37.0734 21.8864C37.3359 21.803 37.5426 21.6162 37.7625 21.4627C40.3288 19.6911 42.8918 17.9195 45.4581 16.1479C45.783 15.9243 46.1013 15.7008 46.5378 15.7509C47.0399 15.8109 47.3123 16.0044 47.414 16.4982C47.4895 16.8652 47.5157 17.2389 47.4993 17.6159C47.4501 18.7669 47.4173 19.918 47.3812 21.069C47.2991 23.7214 47.5223 26.3672 47.5223 29.0162C47.5223 29.5401 47.6175 30.0605 47.6503 30.5843C47.6667 30.8312 47.6765 31.0881 47.6372 31.3317C47.5157 32.0724 47.2302 32.3026 46.4886 32.3126C43.709 32.3493 40.9326 32.3826 38.153 32.4227C35.5211 32.4594 32.8925 32.5028 30.2605 32.5428C27.6778 32.5828 25.0984 32.6095 22.5157 32.6662C19.8608 32.7263 17.2059 32.763 14.551 32.793C12.8807 32.8097 11.207 32.8631 9.53661 32.8731C7.59384 32.8831 5.65435 32.9432 3.71159 32.9965C2.8485 33.0199 2.53674 32.6262 2.79927 31.7988C2.99946 31.1615 2.94695 30.5009 2.89444 29.8637C2.82224 28.9896 2.84194 28.1154 2.79927 27.2413C2.70739 25.443 2.668 23.6414 2.82881 21.8431C2.84194 21.6929 2.83865 21.5428 2.86491 21.3927C2.96336 20.8455 3.26856 20.6053 3.80347 20.6987C4.06601 20.7454 4.32198 20.8488 4.57467 20.9489C6.81608 21.8464 9.05748 22.7539 11.2989 23.6547C11.9093 23.8983 11.9126 23.8983 12.3031 23.3544C15.9359 18.2465 19.5786 13.1418 23.195 8.01716C23.858 7.0763 24.2813 6.78604 25.2133 7.90372C28.9872 12.4245 32.8006 16.9152 36.6008 21.416C36.7419 21.5862 36.8666 21.7797 37.0734 21.8864Z" fill="#FFD538"/>
<path id="Vector_4" d="M3.80677 20.7122C4.08572 20.7189 4.32857 20.8557 4.57797 20.9557C6.70123 21.8065 8.81793 22.6806 10.9478 23.5181C12.1193 23.9785 11.8174 24.0519 12.523 23.0643C16.1 18.0498 19.6574 13.0219 23.2246 7.9973C23.369 7.79378 23.5134 7.59026 23.6676 7.40009C23.8612 7.15987 24.1172 7.10649 24.4027 7.18656C24.7079 7.27331 24.7046 7.52354 24.7178 7.78711C24.8195 9.62878 24.9803 11.4604 25.3511 13.2688C25.8467 15.6776 26.608 17.9897 27.7304 20.1717C28.2554 21.1926 28.9151 22.1335 29.6436 23.0076C30.7397 24.3255 31.78 25.6967 33.0172 26.8811C34.3824 28.189 35.5343 29.687 36.7911 31.0883C37.0635 31.3886 37.2637 31.7289 37.4015 32.1059C37.4934 32.3528 37.395 32.4896 37.1324 32.4962C37.0832 32.4962 37.034 32.4996 36.9848 32.4929C35.6819 32.3828 34.3824 32.5229 33.0828 32.5163C31.2451 32.5062 29.404 32.563 27.563 32.5863C25.9451 32.6063 24.3272 32.633 22.7094 32.6664C20.8191 32.7031 18.9321 32.7198 17.0419 32.7431C15.4502 32.7631 13.8521 32.7765 12.2604 32.8399C11.1086 32.8866 9.9534 32.7565 8.80809 32.9366C8.73589 32.9466 8.66041 32.9466 8.58821 32.94C7.16395 32.8199 5.7397 33.0434 4.31544 32.93C4.06931 32.9099 3.82975 32.9633 3.58362 32.9934C3.00604 33.0601 2.57286 32.5696 2.73366 31.9991C2.98307 31.115 2.94369 30.2308 2.85508 29.3334C2.78617 28.6394 2.82226 27.9388 2.79601 27.2415C2.72381 25.3698 2.68771 23.4947 2.84524 21.623C2.90759 20.889 3.16356 20.6455 3.80677 20.7122Z" fill="#FFE89B"/>
<path id="Vector_5" d="M23.7726 8.22091C22.4501 8.25094 20.701 6.74624 20.6583 4.72774C20.6386 3.7335 20.9044 2.89941 21.5247 2.10535C22.0497 1.42807 22.565 0.814181 23.3427 0.417153C25.6235 -0.750575 28.18 0.690735 28.7772 2.95613C29.2235 4.66101 28.6427 6.33253 27.1659 7.32343C26.2175 7.95734 25.1641 8.24427 23.7726 8.22091Z" fill="#FFE85C"/>
<path id="Vector_6" d="M3.05526 15.848C4.59438 15.8246 5.75282 17.2126 5.64124 18.5238C5.50341 20.1119 4.50249 21.6299 2.71724 21.5665C1.18469 21.5131 -0.0689221 20.1319 0.00327531 18.5905C0.0787545 16.9423 1.77539 15.6712 3.05526 15.848Z" fill="#FFE85C"/>
<path id="Vector_7" d="M47.1941 16.5651C45.8552 16.5717 44.6344 15.4074 44.7066 13.8026C44.7755 12.2478 46.0488 11.0701 47.5912 11.1301C49.15 11.1902 49.9836 12.508 50 14.243C50.0098 15.6476 48.7595 16.6318 47.1941 16.5651Z" fill="#FFE85C"/>
<path id="Vector_8" d="M24.0581 8.19435C22.1055 8.20103 20.5697 6.36602 20.6911 4.58774C20.7042 4.41425 20.6977 4.23742 20.7141 4.06393C20.7568 3.5835 20.9405 3.46672 21.3901 3.62353C21.7544 3.75031 21.9874 4.05726 22.2729 4.28747C22.6437 4.58107 23.0277 4.6945 23.4871 4.7312C25.1838 4.868 26.7951 4.49766 28.3867 3.95717C28.9118 3.777 29.0693 3.90712 28.9643 4.4376C28.6033 6.23257 27.5663 7.42032 25.8434 7.96081C25.2363 8.14764 24.6128 8.30779 24.0581 8.19435Z" fill="#FFF2CC"/>
<path id="Vector_9" d="M0.0918785 18.2064C1.05014 18.6635 1.98542 18.5568 2.9043 18.5134C3.59674 18.48 4.22682 18.2431 4.81753 17.8328C5.38854 17.4357 5.64452 17.6293 5.63467 18.3566C5.62154 19.4676 4.97505 21.0257 3.60658 21.4527C2.2939 21.8631 0.879487 21.1057 0.357696 20.0414C0.0820334 19.4809 -0.11815 18.9004 0.0918785 18.2064Z" fill="#FFF2CC"/>
<path id="Vector_10" d="M28.7838 20.5387C28.7871 20.7489 28.6689 20.919 28.577 21.0925C27.5269 23.0443 26.4833 25.0027 25.4201 26.9478C24.8687 27.9554 24.7407 27.9654 23.9728 27.0946C22.5912 25.5299 21.2162 23.9584 19.8444 22.387C19.4145 21.8966 19.4014 21.7364 19.7821 21.2159C20.678 19.9915 21.5772 18.7704 22.4961 17.5626C22.8406 17.1089 23.0999 16.5884 23.5167 16.188C23.9367 15.7843 24.0024 15.7677 24.4323 16.158C25.7974 17.4158 27.1561 18.6836 28.518 19.9515C28.6853 20.1083 28.8199 20.2851 28.7838 20.5387Z" fill="#FF5C5C"/>
<path id="Vector_11" d="M37.1849 4.10056C38.2023 3.96377 38.8258 4.42085 39.1966 5.30165C39.2656 5.4618 39.3574 5.6086 39.4329 5.7654C39.8792 6.68958 39.9022 7.62376 39.2984 8.45785C38.6453 9.35533 37.7396 9.81242 36.6008 9.62224C36.312 9.57553 36.0232 9.50881 35.741 9.42873C34.7926 9.16516 34.1986 8.41782 34.1822 7.41023C34.1756 7.03656 34.0608 6.67623 34.1264 6.29589C34.3561 4.99804 35.403 4.09055 36.7124 4.08054C36.8863 4.08054 37.057 4.09722 37.1849 4.10056Z" fill="#FFD638"/>
<path id="Vector_12" d="M7.80061 8.55129C7.94828 6.66291 8.96561 5.54189 10.9478 6.1391C12.0471 6.4694 12.884 7.3502 12.9168 8.4145C12.9496 9.50549 12.3425 10.3129 11.4663 10.8667C10.6294 11.3972 9.73025 11.4239 8.88685 10.8601C8.07955 10.3196 7.70872 9.54219 7.80061 8.55129Z" fill="#FFD638"/>
</g>
</g>
<defs>
<clipPath id="clip0_182_564">
<rect width="50" height="33" fill="white"/>
</clipPath>
</defs>
</svg>
