<svg width="48" height="48" viewBox="0 0 48 48" fill="none" xmlns="http://www.w3.org/2000/svg">
<g id="Component 6">
<rect width="48" height="48" rx="24" fill="#FF5C5C"/>
<g id="ico-alert">
<path id="Shape" fill-rule="evenodd" clip-rule="evenodd" d="M12 24C12 17.3675 17.367 12 24 12C30.6325 12 36 17.367 36 24C36 30.6325 30.633 36 24 36C17.3675 36 12 30.633 12 24ZM13.875 24C13.875 29.5962 18.4035 34.125 24 34.125C29.5962 34.125 34.125 29.5965 34.125 24C34.125 18.4038 29.5965 13.875 24 13.875C18.4038 13.875 13.875 18.4035 13.875 24Z" fill="white"/>
<path id="Path" d="M24 18.041C23.4822 18.041 23.0625 18.4607 23.0625 18.9785V25.0157C23.0625 25.5335 23.4822 25.9532 24 25.9532C24.5178 25.9532 24.9375 25.5335 24.9375 25.0157V18.9785C24.9375 18.4607 24.5178 18.041 24 18.041Z" fill="white"/>
<path id="Oval" d="M24 29.6326C24.699 29.6326 25.2656 29.0659 25.2656 28.3669C25.2656 27.668 24.699 27.1013 24 27.1013C23.301 27.1013 22.7344 27.668 22.7344 28.3669C22.7344 29.0659 23.301 29.6326 24 29.6326Z" fill="white"/>
</g>
</g>
</svg>
