<svg width="24" height="24" viewBox="0 0 24 24" fill="none" xmlns="http://www.w3.org/2000/svg">
<g id="vuesax/bulk/document-download">
<g id="document-download">
<path id="Vector" opacity="0.4" d="M20.5 10.19H17.61C15.24 10.19 13.31 8.26 13.31 5.89V3C13.31 2.45 12.86 2 12.31 2H8.07C4.99 2 2.5 4 2.5 7.57V16.43C2.5 20 4.99 22 8.07 22H15.93C19.01 22 21.5 20 21.5 16.43V11.19C21.5 10.64 21.05 10.19 20.5 10.19Z" fill="#FFB46D"/>
<path id="Vector_2" d="M15.8 2.20999C15.39 1.79999 14.68 2.07999 14.68 2.64999V6.13999C14.68 7.59999 15.92 8.80999 17.43 8.80999C18.38 8.81999 19.7 8.81999 20.83 8.81999C21.4 8.81999 21.7 8.14999 21.3 7.74999C19.86 6.29999 17.28 3.68999 15.8 2.20999Z" fill="#FFB46D"/>
<path id="Vector_3" d="M12.28 14.72C11.99 14.43 11.51 14.43 11.22 14.72L10.5 15.44V11.25C10.5 10.84 10.16 10.5 9.75 10.5C9.34 10.5 9 10.84 9 11.25V15.44L8.28 14.72C7.99 14.43 7.51 14.43 7.22 14.72C6.93 15.01 6.93 15.49 7.22 15.78L9.22 17.78C9.23 17.79 9.24 17.79 9.24 17.8C9.3 17.86 9.38 17.91 9.46 17.95C9.56 17.98 9.65 18 9.75 18C9.85 18 9.94 17.98 10.03 17.94C10.12 17.9 10.2 17.85 10.28 17.78L12.28 15.78C12.57 15.49 12.57 15.01 12.28 14.72Z" fill="#FFB46D"/>
</g>
</g>
</svg>
