<svg width="32" height="32" viewBox="0 0 32 32" fill="none" xmlns="http://www.w3.org/2000/svg">
<g id="physics 1">
<g id="Group">
<path id="Vector" d="M16 12.875C14.2769 12.875 12.875 14.2769 12.875 16C12.875 17.7231 14.2769 19.125 16 19.125C17.7231 19.125 19.125 17.7231 19.125 16C19.125 14.2769 17.7231 12.875 16 12.875Z" fill="#767DFF"/>
<path id="Vector_2" d="M29.5316 8.1875C28.1287 5.75737 24.2945 5.91488 21.5364 6.47837C20.6716 3.73506 18.8771 0 16 0C13.1234 0 11.3288 3.734 10.4636 6.47837C7.6997 5.91369 3.87026 5.75931 2.46838 8.1875C1.05813 10.6301 3.13976 13.8922 5.01582 16C3.14045 18.107 1.05795 21.3695 2.46838 23.8125C3.86845 26.2375 7.69813 26.0866 10.4636 25.5216C11.3284 28.2649 13.1229 32 16 32C18.8766 32 20.6713 28.266 21.5364 25.5216C24.2851 26.0832 28.1256 26.2479 29.5316 23.8125C30.9419 21.3699 28.8603 18.1078 26.9842 16C28.8596 13.893 30.9421 10.6305 29.5316 8.1875ZM16 1.25C18.1359 1.25 19.6591 4.70562 20.3139 6.76494C18.9226 7.13144 17.4689 7.64781 16 8.29688C14.5311 7.64781 13.0773 7.13144 11.6861 6.76494C12.3384 4.71369 13.8614 1.25 16 1.25ZM21.625 16C21.625 17.066 21.5759 18.1284 21.4818 19.1674C19.7783 20.3681 17.8943 21.456 16 22.3321C14.1084 21.4573 12.2241 20.3697 10.5182 19.1674C10.4241 18.1284 10.375 17.066 10.375 16C10.375 14.934 10.4241 13.8716 10.5182 12.8326C12.2218 11.6319 14.1058 10.544 16 9.66788C17.8916 10.5428 19.7759 11.6302 21.4818 12.8326C21.5759 13.8716 21.625 14.934 21.625 16ZM22.8116 13.8219C23.7111 14.5289 24.5359 15.2594 25.2698 16C24.5359 16.7406 23.7111 17.4711 22.8116 18.1781C22.8534 17.4608 22.875 16.7336 22.875 16C22.875 15.2664 22.8534 14.5392 22.8116 13.8219ZM21.2928 20.8084C21.1344 21.9362 20.9217 23.021 20.6591 24.0343C19.643 23.7683 18.5893 23.4167 17.5184 22.9876C18.8144 22.3384 20.0812 21.6071 21.2928 20.8084ZM14.4816 22.9876C13.4108 23.4167 12.357 23.7683 11.3409 24.0343C11.0784 23.021 10.8656 21.9363 10.7073 20.8084C11.9175 21.6063 13.1841 22.3377 14.4816 22.9876ZM9.18845 18.1781C8.28895 17.4711 7.46407 16.7406 6.73026 16C7.46407 15.2594 8.28889 14.5289 9.18845 13.8219C9.14664 14.5392 9.12501 15.2664 9.12501 16C9.12501 16.7336 9.14664 17.4608 9.18845 18.1781ZM10.7073 11.1916C10.8656 10.0637 11.0783 8.979 11.3409 7.96569C12.357 8.23175 13.4108 8.58325 14.4816 9.01244C13.1856 9.66162 11.9188 10.3929 10.7073 11.1916ZM17.5183 9.01244C18.5892 8.58325 19.6429 8.23175 20.6591 7.96569C20.9216 8.979 21.1343 10.0637 21.2927 11.1916C20.0825 10.3937 18.8159 9.66231 17.5183 9.01244ZM3.55088 8.8125C4.59676 7.001 8.04545 7.27131 10.1183 7.68325C9.75757 9.07325 9.49051 10.5783 9.32464 12.1516C8.04307 13.0885 6.8812 14.0774 5.87645 15.087C4.48188 13.5011 2.49895 10.6346 3.55088 8.8125ZM3.55088 23.1875C2.5002 21.3675 4.47695 18.5044 5.87638 16.913C6.88113 17.9226 8.04301 18.9115 9.32457 19.8484C9.49045 21.4217 9.75751 22.9268 10.1182 24.3167C8.05082 24.7276 4.59857 25.0022 3.55088 23.1875ZM16 30.75C13.8641 30.75 12.3409 27.2944 11.6861 25.2351C13.0773 24.8686 14.5311 24.3522 16 23.7031C17.4689 24.3522 18.9227 24.8686 20.3139 25.2351C19.6616 27.2863 18.1386 30.75 16 30.75ZM28.4491 23.1875C27.4014 25.0024 23.9486 24.7275 21.8818 24.3167C22.2424 22.9268 22.5095 21.4217 22.6754 19.8484C23.9569 18.9115 25.1188 17.9226 26.1236 16.913C27.5181 18.4989 29.5011 21.3654 28.4491 23.1875ZM22.6754 12.1516C22.5095 10.5783 22.2424 9.07325 21.8818 7.68325C23.9639 7.2695 27.4059 7.00575 28.4491 8.8125C29.4998 10.6325 27.5231 13.4956 26.1236 15.087C25.1188 14.0774 23.9569 13.0885 22.6754 12.1516Z" fill="#767DFF"/>
</g>
</g>
</svg>
