<svg width="32" height="32" viewBox="0 0 32 32" fill="none" xmlns="http://www.w3.org/2000/svg">
<g id="microscope 1" clip-path="url(#clip0_86_862)">
<g id="Group">
<g id="Group_2">
<path id="Vector" d="M26 27H23.9374V25.8437C23.9374 24.6334 23.4908 23.4776 22.6941 22.5838C22.7946 22.4928 22.8932 22.3989 22.9897 22.3023C24.5278 20.7642 25.3749 18.7258 25.3749 16.5625C25.3749 15.4808 25.164 14.4313 24.7481 13.44C24.7963 13.2224 24.8225 12.9966 24.8225 12.7647C24.8225 11.8355 24.4144 11.0003 23.7686 10.4274L23.9575 10.1002C24.3648 9.39459 24.2596 8.53172 23.7587 7.9446L24.5213 6.62366C24.6291 6.62335 24.7376 6.60916 24.8446 6.58047C25.1675 6.49397 25.4371 6.28735 25.6037 5.99879L26.5412 4.37498C26.7138 4.07604 26.6114 3.69379 26.3125 3.52123L20.3585 0.0837361C20.215 0.000798738 20.0442 -0.0215762 19.8843 0.0212987C19.7241 0.0642361 19.5877 0.168923 19.5048 0.312486L18.5673 1.9363C18.3366 2.33592 18.3533 2.81079 18.5681 3.18485L17.805 4.50654C17.5338 4.45635 17.2522 4.46685 16.9773 4.54054C16.4926 4.67041 16.0881 4.98016 15.8384 5.41266L12.4009 11.3667C12.1512 11.7992 12.0852 12.3043 12.215 12.789C12.2887 13.064 12.4204 13.3131 12.5994 13.5228L11.9209 14.698C11.7543 14.9866 11.7102 15.3234 11.7968 15.6464C11.8834 15.9693 12.0899 16.239 12.3785 16.4055L16.1674 18.593C16.3637 18.7064 16.5783 18.7603 16.7902 18.7603C17.2225 18.7603 17.6436 18.5361 17.8748 18.1355L18.5536 16.9598C18.6645 16.9803 18.7772 16.9913 18.8905 16.9913C19.0539 16.9913 19.2187 16.9698 19.381 16.9263C19.8658 16.7964 20.2703 16.4866 20.52 16.0541L20.7082 15.7282C20.9813 15.8196 21.271 15.8745 21.5717 15.8865C21.6068 16.1095 21.6249 16.3356 21.6249 16.5626C21.6249 17.7244 21.1679 18.8211 20.3382 19.6509C19.5085 20.4806 18.4117 20.9375 17.2499 20.9375H15.0623C14.7172 20.9375 14.4373 21.2173 14.4373 21.5625C14.4373 21.9077 14.7172 22.1875 15.0623 22.1875H17.2499C17.5945 22.1875 17.8749 22.4679 17.8749 22.8125C17.8749 23.1571 17.5945 23.4375 17.2499 23.4375H7.25018C6.90556 23.4375 6.62518 23.1571 6.62518 22.8125C6.62518 22.4679 6.90556 22.1875 7.25018 22.1875H9.4373C9.78242 22.1875 10.0623 21.9077 10.0623 21.5625C10.0623 21.2173 9.78242 20.9375 9.4373 20.9375H7.25018C6.21631 20.9375 5.37518 21.7786 5.37518 22.8125C5.37518 23.8464 6.21631 24.6875 7.25018 24.6875H8.8303V27H6.00006C4.96618 27 4.12506 27.8411 4.12506 28.875V31.375C4.12506 31.7202 4.40494 32 4.75006 32H27.25C27.5951 32 27.875 31.7202 27.875 31.375V28.875C27.875 27.8411 27.0339 27 26 27ZM22.6874 25.8437V27H21.4374V25.8437C21.4374 25.0954 21.0939 24.4258 20.5564 23.9841C20.9538 23.806 21.3372 23.5951 21.7035 23.3531C22.3328 24.0276 22.6874 24.9142 22.6874 25.8437ZM17.2499 24.6875H19.0312C19.6687 24.6875 20.1874 25.2062 20.1874 25.8437V27H15.7052V24.6875H17.2499ZM21.6975 14.6396C20.6636 14.6396 19.8225 13.7985 19.8225 12.7646C19.8225 11.7308 20.6636 10.8897 21.6975 10.8897C22.7313 10.8897 23.5725 11.7308 23.5725 12.7646C23.5725 13.7985 22.7313 14.6396 21.6975 14.6396ZM18.941 5.03891L19.566 3.95629L23.355 6.14379L22.7299 7.22641L18.941 5.03891ZM20.2748 1.47873L25.1461 4.29123L24.5212 5.37373L19.6498 2.56123L20.2748 1.47873ZM13.0035 15.323L13.6285 14.2405L17.4174 16.428L16.7924 17.5105L13.0035 15.323ZM19.4375 15.4291C19.3547 15.5725 19.2198 15.6754 19.0575 15.7189C18.8954 15.7623 18.7272 15.7407 18.5837 15.6579L13.7129 12.8457C13.7127 12.8456 13.7125 12.8455 13.7124 12.8454C13.7123 12.8453 13.7122 12.8453 13.712 12.8453C13.5688 12.7625 13.466 12.6276 13.4225 12.4655C13.3791 12.3033 13.4007 12.135 13.4835 11.9917L16.921 6.03766C17.0038 5.89429 17.1387 5.79141 17.301 5.74791C17.463 5.70447 17.6313 5.7261 17.7748 5.80891L22.6462 8.62141C22.9446 8.79372 23.0473 9.17672 22.875 9.47515L22.6868 9.80103C22.3757 9.69684 22.0433 9.63959 21.6975 9.63959C19.9744 9.63959 18.5725 11.0415 18.5725 12.7646C18.5725 13.6938 18.9806 14.529 19.6264 15.1019L19.4375 15.4291ZM18.9075 21.9374C19.77 21.6703 20.5623 21.1946 21.2222 20.5348C22.288 19.4689 22.8749 18.0583 22.8749 16.5626C22.8749 16.2684 22.8513 15.9753 22.8055 15.6861C23.234 15.523 23.6175 15.2683 23.9323 14.946C24.0602 15.4717 24.1249 16.0121 24.1249 16.5625C24.1249 18.3919 23.4078 20.1164 22.1058 21.4184C21.2515 22.2728 20.2153 22.8752 19.087 23.1885C19.1118 23.067 19.1248 22.9413 19.1248 22.8125C19.1249 22.4966 19.046 22.1989 18.9075 21.9374ZM10.0803 24.6875H14.4552V27H10.0803V24.6875ZM26.625 30.75H5.37506V28.875C5.37506 28.5304 5.65543 28.25 6.00006 28.25H26C26.3446 28.25 26.625 28.5304 26.625 28.875V30.75Z" fill="#FFB46D"/>
<path id="Vector_2" d="M12.8751 21.5625C12.8751 21.2173 12.5952 20.9375 12.2501 20.9375H12.2496C11.9044 20.9375 11.6248 21.2173 11.6248 21.5625C11.6248 21.9077 11.9049 22.1875 12.2501 22.1875C12.5953 22.1875 12.8751 21.9077 12.8751 21.5625Z" fill="#FFB46D"/>
</g>
</g>
</g>
<defs>
<clipPath id="clip0_86_862">
<rect width="32" height="32" fill="white"/>
</clipPath>
</defs>
</svg>
