<svg width="60" height="60" viewBox="0 0 60 60" fill="none" xmlns="http://www.w3.org/2000/svg">
<path opacity="0.5" d="M60 30C60 46.5685 46.5685 60 30 60C13.4315 60 0 46.5685 0 30C0 13.4315 13.4315 0 30 0C46.5685 0 60 13.4315 60 30ZM6 30C6 43.2548 16.7452 54 30 54C43.2548 54 54 43.2548 54 30C54 16.7452 43.2548 6 30 6C16.7452 6 6 16.7452 6 30Z" fill="#AFB3C1"/>
<path d="M30 3C30 1.34315 28.6535 -0.0155362 27.005 0.149876C23.8404 0.467397 20.7399 1.28681 17.8217 2.58305C13.9875 4.28614 10.5532 6.77449 7.74056 9.88739C4.92788 13.0003 2.79939 16.6685 1.49256 20.6552C0.497905 23.6895 -0.00393626 26.8569 2.04131e-05 30.0373C0.00208164 31.6942 1.4899 32.8964 3.13827 32.729C4.78664 32.5615 5.96741 31.0863 6.00677 29.4299C6.06242 27.0877 6.46089 24.7607 7.19404 22.5241C8.23951 19.3348 9.94231 16.4002 12.1924 13.9099C14.4426 11.4196 17.19 9.42891 20.2574 8.06644C22.4084 7.11098 24.6832 6.47936 27.0078 6.18726C28.6517 5.98069 30 4.65685 30 3Z" fill="#FF5C5C"/>
<path d="M20.2839 26.334C20.3439 25.134 20.7639 24.21 21.5439 23.562C22.3359 22.902 23.3739 22.572 24.6579 22.572C25.5339 22.572 26.2839 22.728 26.9079 23.04C27.5319 23.34 27.9999 23.754 28.3119 24.282C28.6359 24.798 28.7979 25.386 28.7979 26.046C28.7979 26.802 28.5999 27.444 28.2039 27.972C27.8199 28.488 27.3579 28.836 26.8179 29.016V29.088C27.5139 29.304 28.0539 29.688 28.4379 30.24C28.8339 30.792 29.0319 31.5 29.0319 32.364C29.0319 33.084 28.8639 33.726 28.5279 34.29C28.2039 34.854 27.7179 35.298 27.0699 35.622C26.4339 35.934 25.6659 36.09 24.7659 36.09C23.4099 36.09 22.3059 35.748 21.4539 35.064C20.6019 34.38 20.1519 33.372 20.1039 32.04H22.5519C22.5759 32.628 22.7739 33.102 23.1459 33.462C23.5299 33.81 24.0519 33.984 24.7119 33.984C25.3239 33.984 25.7919 33.816 26.1159 33.48C26.4519 33.132 26.6199 32.688 26.6199 32.148C26.6199 31.428 26.3919 30.912 25.9359 30.6C25.4799 30.288 24.7719 30.132 23.8119 30.132H23.2899V28.062H23.8119C25.5159 28.062 26.3679 27.492 26.3679 26.352C26.3679 25.836 26.2119 25.434 25.8999 25.146C25.5999 24.858 25.1619 24.714 24.5859 24.714C24.0219 24.714 23.5839 24.87 23.2719 25.182C22.9719 25.482 22.7979 25.866 22.7499 26.334H20.2839ZM31.0233 29.268C31.0233 27.192 31.3953 25.566 32.1393 24.39C32.8953 23.214 34.1433 22.626 35.8833 22.626C37.6233 22.626 38.8653 23.214 39.6093 24.39C40.3653 25.566 40.7433 27.192 40.7433 29.268C40.7433 31.356 40.3653 32.994 39.6093 34.182C38.8653 35.37 37.6233 35.964 35.8833 35.964C34.1433 35.964 32.8953 35.37 32.1393 34.182C31.3953 32.994 31.0233 31.356 31.0233 29.268ZM38.2593 29.268C38.2593 28.38 38.1993 27.636 38.0793 27.036C37.9713 26.424 37.7433 25.926 37.3953 25.542C37.0593 25.158 36.5553 24.966 35.8833 24.966C35.2113 24.966 34.7013 25.158 34.3533 25.542C34.0173 25.926 33.7893 26.424 33.6693 27.036C33.5613 27.636 33.5073 28.38 33.5073 29.268C33.5073 30.18 33.5613 30.948 33.6693 31.572C33.7773 32.184 34.0053 32.682 34.3533 33.066C34.7013 33.438 35.2113 33.624 35.8833 33.624C36.5553 33.624 37.0653 33.438 37.4133 33.066C37.7613 32.682 37.9893 32.184 38.0973 31.572C38.2053 30.948 38.2593 30.18 38.2593 29.268Z" fill="#FF5C5C"/>
</svg>
