<svg width="60" height="60" viewBox="0 0 60 60" fill="none" xmlns="http://www.w3.org/2000/svg">
<path opacity="0.5" d="M60 30C60 46.5685 46.5685 60 30 60C13.4315 60 0 46.5685 0 30C0 13.4315 13.4315 0 30 0C46.5685 0 60 13.4315 60 30ZM6 30C6 43.2548 16.7452 54 30 54C43.2548 54 54 43.2548 54 30C54 16.7452 43.2548 6 30 6C16.7452 6 6 16.7452 6 30Z" fill="#AFB3C1"/>
<path d="M30 3C30 1.34315 28.6535 -0.0155442 27.0049 0.149864C22.1297 0.639013 17.4321 2.31691 13.3329 5.05591C8.39942 8.35235 4.55424 13.0377 2.28361 18.5195C0.0129851 24.0013 -0.581115 30.0333 0.576442 35.8527C1.734 41.6721 4.59122 47.0176 8.7868 51.2132C12.9824 55.4088 18.3279 58.266 24.1473 59.4236C29.9667 60.5811 35.9987 59.987 41.4805 57.7164C46.9623 55.4458 51.6476 51.6006 54.9441 46.6671C57.6831 42.5679 59.361 37.8703 59.8501 32.9951C60.0155 31.3465 58.6569 30 57 30C55.3431 30 54.0193 31.3483 53.8128 32.9923C53.3495 36.6787 52.0346 40.2217 49.9553 43.3337C47.3181 47.2805 43.5698 50.3566 39.1844 52.1731C34.799 53.9896 29.9734 54.4649 25.3178 53.5388C20.6623 52.6128 16.3859 50.327 13.0294 46.9706C9.67298 43.6141 7.3872 39.3377 6.46115 34.6822C5.53511 30.0266 6.01039 25.201 7.82689 20.8156C9.64339 16.4302 12.7195 12.6819 16.6663 10.0447C19.7783 7.96539 23.3213 6.65048 27.0077 6.18725C28.6517 5.98067 30 4.65685 30 3Z" fill="#458CFF"/>
<path d="M28.5833 24.786L23.7953 36H21.2393L26.0633 25.074H19.9073V22.914H28.5833V24.786ZM38.9127 25.056H33.0807V28.134C33.3327 27.822 33.6927 27.57 34.1607 27.378C34.6287 27.174 35.1267 27.072 35.6547 27.072C36.6147 27.072 37.4007 27.282 38.0127 27.702C38.6247 28.122 39.0687 28.662 39.3447 29.322C39.6207 29.97 39.7587 30.666 39.7587 31.41C39.7587 32.79 39.3627 33.9 38.5707 34.74C37.7907 35.58 36.6747 36 35.2227 36C33.8547 36 32.7627 35.658 31.9467 34.974C31.1307 34.29 30.6687 33.396 30.5607 32.292H33.0087C33.1167 32.772 33.3567 33.156 33.7287 33.444C34.1127 33.732 34.5987 33.876 35.1867 33.876C35.8947 33.876 36.4287 33.654 36.7887 33.21C37.1487 32.766 37.3287 32.178 37.3287 31.446C37.3287 30.702 37.1427 30.138 36.7707 29.754C36.4107 29.358 35.8767 29.16 35.1687 29.16C34.6647 29.16 34.2447 29.286 33.9087 29.538C33.5727 29.79 33.3327 30.126 33.1887 30.546H30.7767V22.842H38.9127V25.056Z" fill="#458CFF"/>
</svg>
