<svg width="60" height="60" viewBox="0 0 60 60" fill="none" xmlns="http://www.w3.org/2000/svg">
<path opacity="0.5" d="M60 30C60 46.5685 46.5685 60 30 60C13.4315 60 0 46.5685 0 30C0 13.4315 13.4315 0 30 0C46.5685 0 60 13.4315 60 30ZM6 30C6 43.2548 16.7452 54 30 54C43.2548 54 54 43.2548 54 30C54 16.7452 43.2548 6 30 6C16.7452 6 6 16.7452 6 30Z" fill="#AFB3C1"/>
<path d="M30 3C30 1.34315 28.6535 -0.0155514 27.0049 0.149847C21.419 0.710268 16.0803 2.82998 11.6128 6.29535C6.35208 10.376 2.59824 16.0906 0.942506 22.5393C-0.713229 28.988 -0.176781 35.8042 2.46736 41.9144C5.1115 48.0247 9.71309 53.0818 15.5474 56.2892C21.3817 59.4966 28.1172 60.6722 34.693 59.6306C41.2689 58.5891 47.3115 55.3898 51.8691 50.5364C56.4267 45.6831 59.2403 39.4515 59.8669 32.8233C60.3989 27.1944 59.3281 21.551 56.8082 16.5344C56.0645 15.0538 54.1958 14.6449 52.7969 15.5327C51.3979 16.4205 51.0027 18.2682 51.7091 19.7669C53.5363 23.6431 54.3002 27.9562 53.8935 32.2586C53.3922 37.5612 51.1413 42.5465 47.4952 46.4291C43.8492 50.3118 39.0151 52.8713 33.7544 53.7045C28.4937 54.5377 23.1053 53.5973 18.4379 51.0314C13.7705 48.4654 10.0892 44.4197 7.97389 39.5315C5.85858 34.6433 5.42942 29.1904 6.754 24.0314C8.07859 18.8725 11.0817 14.3008 15.2902 11.0363C18.705 8.38752 22.756 6.72148 27.0077 6.18723C28.6517 5.98066 30 4.65685 30 3Z" fill="#458CFF"/>
<path d="M21.5748 29.052C20.3748 28.428 19.7748 27.462 19.7748 26.154C19.7748 25.506 19.9368 24.918 20.2608 24.39C20.5968 23.85 21.0948 23.424 21.7548 23.112C22.4268 22.788 23.2428 22.626 24.2028 22.626C25.1628 22.626 25.9728 22.788 26.6328 23.112C27.3048 23.424 27.8028 23.85 28.1268 24.39C28.4628 24.918 28.6308 25.506 28.6308 26.154C28.6308 26.814 28.4688 27.396 28.1448 27.9C27.8208 28.392 27.3888 28.776 26.8488 29.052C27.5088 29.34 28.0248 29.76 28.3968 30.312C28.7688 30.864 28.9548 31.518 28.9548 32.274C28.9548 33.09 28.7448 33.804 28.3248 34.416C27.9168 35.016 27.3528 35.478 26.6328 35.802C25.9128 36.126 25.1028 36.288 24.2028 36.288C23.3028 36.288 22.4928 36.126 21.7728 35.802C21.0648 35.478 20.5008 35.016 20.0808 34.416C19.6728 33.804 19.4688 33.09 19.4688 32.274C19.4688 31.518 19.6548 30.864 20.0268 30.312C20.3988 29.748 20.9148 29.328 21.5748 29.052ZM26.1828 26.514C26.1828 25.926 26.0028 25.47 25.6428 25.146C25.2948 24.822 24.8148 24.66 24.2028 24.66C23.6028 24.66 23.1228 24.822 22.7628 25.146C22.4148 25.47 22.2408 25.932 22.2408 26.532C22.2408 27.072 22.4208 27.504 22.7808 27.828C23.1528 28.152 23.6268 28.314 24.2028 28.314C24.7788 28.314 25.2528 28.152 25.6248 27.828C25.9968 27.492 26.1828 27.054 26.1828 26.514ZM24.2028 30.15C23.5188 30.15 22.9608 30.324 22.5288 30.672C22.1088 31.02 21.8988 31.518 21.8988 32.166C21.8988 32.766 22.1028 33.258 22.5108 33.642C22.9308 34.014 23.4948 34.2 24.2028 34.2C24.9108 34.2 25.4688 34.008 25.8768 33.624C26.2848 33.24 26.4888 32.754 26.4888 32.166C26.4888 31.53 26.2788 31.038 25.8588 30.69C25.4388 30.33 24.8868 30.15 24.2028 30.15ZM39.7652 25.056H33.9332V28.134C34.1852 27.822 34.5452 27.57 35.0132 27.378C35.4812 27.174 35.9792 27.072 36.5072 27.072C37.4672 27.072 38.2532 27.282 38.8652 27.702C39.4772 28.122 39.9212 28.662 40.1972 29.322C40.4732 29.97 40.6112 30.666 40.6112 31.41C40.6112 32.79 40.2152 33.9 39.4232 34.74C38.6432 35.58 37.5272 36 36.0752 36C34.7072 36 33.6152 35.658 32.7992 34.974C31.9832 34.29 31.5212 33.396 31.4132 32.292H33.8612C33.9692 32.772 34.2092 33.156 34.5812 33.444C34.9652 33.732 35.4512 33.876 36.0392 33.876C36.7472 33.876 37.2812 33.654 37.6412 33.21C38.0012 32.766 38.1812 32.178 38.1812 31.446C38.1812 30.702 37.9952 30.138 37.6232 29.754C37.2632 29.358 36.7292 29.16 36.0212 29.16C35.5172 29.16 35.0972 29.286 34.7612 29.538C34.4252 29.79 34.1852 30.126 34.0412 30.546H31.6292V22.842H39.7652V25.056Z" fill="#458CFF"/>
</svg>
