<svg width="32" height="32" viewBox="0 0 32 32" fill="none" xmlns="http://www.w3.org/2000/svg">
<g id="dna 1" clip-path="url(#clip0_86_889)">
<path id="Vector" d="M29.3694 8.2927C29.0628 8.59934 28.7439 8.84836 28.408 9.04611L22.9534 3.59128C23.1512 3.25559 23.3999 2.93674 23.7068 2.62985C24.2932 2.04343 24.2932 1.08908 23.7066 0.502411C23.1201 -0.0840149 22.1658 -0.0842591 21.5791 0.502411C19.1377 2.94382 19.1021 5.89499 19.5293 8.55954C16.4275 7.92014 12.9986 7.64817 10.2612 10.3852C9.02394 11.6228 8.31251 13.0761 8.08644 14.8288C8.05323 15.0859 8.23487 15.3213 8.49195 15.3545C8.7483 15.3877 8.98439 15.206 9.01735 14.9489C9.21608 13.4099 9.83986 12.1343 10.9251 11.049C13.447 8.52707 16.6331 8.89011 19.71 9.55735C19.8018 10.0171 19.8831 10.3777 19.9727 10.7739C16.9156 10.0786 13.9546 9.58713 11.7217 11.8523C6.73048 16.8506 15.2117 25.3777 9.63234 30.957C9.41188 31.1775 9.05299 31.1775 8.83253 30.957C8.61183 30.7366 8.61183 30.3777 8.83253 30.1572C12.3704 26.6191 9.20924 21.5366 8.96144 16.6706C8.94801 16.4118 8.7295 16.2121 8.46876 16.2258C8.20973 16.239 8.01051 16.4597 8.02369 16.7185C8.07521 17.7278 8.24659 18.7392 8.43531 19.6533C5.77076 19.2263 2.81983 19.2619 0.378419 21.7031C-0.209473 22.2907 -0.209717 23.2427 0.378419 23.8305C0.96631 24.4187 1.91797 24.4187 2.50611 23.8305C2.81275 23.5239 3.1316 23.2751 3.46729 23.0774L8.92213 28.532C8.72413 28.8679 8.47535 29.1867 8.16871 29.4934C7.58204 30.0798 7.58204 31.0344 8.16871 31.6208C8.75514 32.2075 9.70949 32.2075 10.2962 31.6208C12.7376 29.1794 12.7732 26.2283 12.346 23.5637C15.8865 24.2934 19.0503 24.3017 21.614 21.738C24.3514 19.0007 24.0789 15.5713 23.4395 12.4695C24.3301 12.6111 25.2246 12.6968 26.1253 12.6684C26.3843 12.6601 26.5877 12.4433 26.5796 12.1843C26.5713 11.9253 26.355 11.7209 26.0957 11.73C25.2544 11.7563 24.3357 11.6775 23.2239 11.4814C23.1336 11.0852 23.0457 10.7119 22.9468 10.2827C25.5506 10.8069 28.0288 10.9609 30.0332 8.95652C30.2537 8.73606 30.6123 8.73606 30.833 8.95652C31.0542 9.17746 31.0542 9.53537 30.833 9.75632C29.9549 10.6347 28.9629 11.2051 27.8008 11.4997C27.5496 11.5634 27.3975 11.8186 27.4612 12.07C27.5249 12.3213 27.7803 12.4734 28.0315 12.4096C29.3621 12.0722 30.4956 11.4216 31.4969 10.4201C31.781 10.136 31.9375 9.75827 31.9375 9.35642C31.9375 8.02024 30.3116 7.35056 29.3694 8.2927ZM1.84229 23.1667C1.6211 23.3879 1.26343 23.3879 1.04224 23.1667C0.82129 22.9458 0.821046 22.5881 1.04224 22.3669C2.5625 20.8467 4.34473 20.3894 6.1172 20.3894C6.97437 20.3894 7.8296 20.4963 8.65162 20.6418C8.74122 21.0359 8.83253 21.4233 8.92872 21.8408C6.32496 21.3164 3.84668 21.1623 1.84229 23.1667ZM4.38941 22.6716C5.66309 22.2803 7.18653 22.4299 9.15284 22.8464C9.56959 24.8127 9.71925 26.3362 9.32765 27.6098L4.38941 22.6716ZM11.6675 20.332C11.3096 18.7864 10.9929 17.3449 11.0069 16.0407L15.9585 20.9924C14.6543 21.0063 13.2129 20.6899 11.6675 20.332ZM17.1626 20.8691L11.1301 14.8366C11.2793 14.1247 11.574 13.4636 12.0725 12.8601L19.1389 19.9267C18.5357 20.4255 17.8748 20.7199 17.1626 20.8691ZM19.803 19.2632L12.7363 12.1965C13.3396 11.698 14.0008 11.4033 14.7127 11.2541L20.7451 17.2866C20.596 17.9985 20.3015 18.6596 19.803 19.2632ZM20.208 11.7912C20.5659 13.3369 20.8824 14.7783 20.8687 16.0825L15.917 11.1308C17.221 11.1169 18.6626 11.4333 20.208 11.7912ZM20.9502 21.0742C18.4282 23.5962 15.2425 23.2331 12.1653 22.5659C12.0991 22.2358 12.0271 21.8957 11.9026 21.3493C14.999 22.0537 17.8989 22.5256 20.1504 20.2741C25.1084 15.3164 16.6956 6.71359 22.2432 1.16623C22.4637 0.945771 22.8223 0.945526 23.043 1.16623C23.2635 1.38669 23.2635 1.74558 23.043 1.96603C18.0567 6.95236 26.5279 15.4968 20.9502 21.0742ZM22.7227 9.27683C22.3059 7.31052 22.1563 5.78708 22.5479 4.5134L27.4861 9.45163C26.2124 9.84324 24.689 9.69358 22.7227 9.27683Z" fill="#56AEFF"/>
</g>
<defs>
<clipPath id="clip0_86_889">
<rect width="32" height="32" fill="white"/>
</clipPath>
</defs>
</svg>
