<svg width="84" height="84" viewBox="0 0 84 84" fill="none" xmlns="http://www.w3.org/2000/svg">
<g filter="url(#filter0_d_160_1356)">
<rect x="15" y="11" width="54" height="54" rx="16" fill="#FFE4F1"/>
</g>
<path d="M55.9985 46.7959C55.7258 46.3674 46.9577 32.5891 46.6875 32.1645V27.625C48.2383 27.625 49.5 26.3633 49.5 24.8125C49.5 23.2617 48.2384 22 46.6875 22H37.3125C35.7617 22 34.5 23.2617 34.5 24.8125C34.5 26.3633 35.7617 27.625 37.3125 27.625V32.1645L28.0016 46.7959C26.0135 49.9202 28.2537 54 31.9563 54H52.0438C55.747 54 57.9863 49.9196 55.9985 46.7959ZM39.041 32.9408C39.1367 32.7904 39.1876 32.6158 39.1876 32.4375V27.625C39.7053 27.625 40.1251 27.2052 40.1251 26.6875C40.1251 26.1698 39.7053 25.75 39.1876 25.75H37.3126C36.7956 25.75 36.3751 25.3294 36.3751 24.8125C36.3751 24.2956 36.7956 23.875 37.3126 23.875H46.6876C47.2045 23.875 47.6251 24.2956 47.6251 24.8125C47.6251 25.3294 47.2045 25.75 46.6876 25.75H44.8126C44.2948 25.75 43.8751 26.1698 43.8751 26.6875C43.8751 27.2052 44.2948 27.625 44.8126 27.625V32.4375C44.8126 32.6158 44.8634 32.7904 44.9591 32.9408L47.5081 36.9462C45.3265 36.4795 43.0055 36.8904 41.0698 38.1809L38.1404 40.1339C36.841 41.0002 35.3052 41.3671 33.7862 41.1986L39.041 32.9408ZM52.0438 52.125H31.9563C29.7345 52.125 28.3908 49.6768 29.5835 47.8026L32.6936 42.9152C33.2952 43.0478 33.9035 43.1144 34.5091 43.1144C36.152 43.1144 37.774 42.6316 39.1803 41.6941L42.1097 39.7411C44.2633 38.3054 47.0295 38.2684 49.2151 39.6289L54.4165 47.8026C55.6095 49.6771 54.2653 52.125 52.0438 52.125Z" fill="#FF84AA"/>
<path d="M36.375 44.625C34.8242 44.625 33.5625 45.8867 33.5625 47.4375C33.5625 48.9883 34.8242 50.25 36.375 50.25C37.9258 50.25 39.1875 48.9883 39.1875 47.4375C39.1875 45.8867 37.9259 44.625 36.375 44.625ZM36.375 48.375C35.8581 48.375 35.4375 47.9544 35.4375 47.4375C35.4375 46.9206 35.8581 46.5 36.375 46.5C36.8919 46.5 37.3125 46.9206 37.3125 47.4375C37.3125 47.9544 36.892 48.375 36.375 48.375Z" fill="#FF84AA"/>
<path d="M45.75 40.875C44.1992 40.875 42.9375 42.1367 42.9375 43.6875C42.9375 45.2383 44.1992 46.5 45.75 46.5C47.3008 46.5 48.5625 45.2383 48.5625 43.6875C48.5625 42.1367 47.3009 40.875 45.75 40.875ZM45.75 44.625C45.2331 44.625 44.8125 44.2044 44.8125 43.6875C44.8125 43.1706 45.2331 42.75 45.75 42.75C46.2669 42.75 46.6875 43.1706 46.6875 43.6875C46.6875 44.2044 46.267 44.625 45.75 44.625Z" fill="#FF84AA"/>
<path d="M42 48.375C42.5178 48.375 42.9375 47.9553 42.9375 47.4375C42.9375 46.9197 42.5178 46.5 42 46.5C41.4822 46.5 41.0625 46.9197 41.0625 47.4375C41.0625 47.9553 41.4822 48.375 42 48.375Z" fill="#FF84AA"/>
<path d="M49.5 48.375C50.0178 48.375 50.4375 47.9553 50.4375 47.4375C50.4375 46.9197 50.0178 46.5 49.5 46.5C48.9822 46.5 48.5625 46.9197 48.5625 47.4375C48.5625 47.9553 48.9822 48.375 49.5 48.375Z" fill="#FF84AA"/>
<path d="M45.75 50.25C46.2678 50.25 46.6875 49.8303 46.6875 49.3125C46.6875 48.7947 46.2678 48.375 45.75 48.375C45.2322 48.375 44.8125 48.7947 44.8125 49.3125C44.8125 49.8303 45.2322 50.25 45.75 50.25Z" fill="#FF84AA"/>
<defs>
<filter id="filter0_d_160_1356" x="0" y="0" width="84" height="84" filterUnits="userSpaceOnUse" color-interpolation-filters="sRGB">
<feFlood flood-opacity="0" result="BackgroundImageFix"/>
<feColorMatrix in="SourceAlpha" type="matrix" values="0 0 0 0 0 0 0 0 0 0 0 0 0 0 0 0 0 0 127 0" result="hardAlpha"/>
<feOffset dy="4"/>
<feGaussianBlur stdDeviation="7.5"/>
<feComposite in2="hardAlpha" operator="out"/>
<feColorMatrix type="matrix" values="0 0 0 0 0 0 0 0 0 0 0 0 0 0 0 0 0 0 0.05 0"/>
<feBlend mode="normal" in2="BackgroundImageFix" result="effect1_dropShadow_160_1356"/>
<feBlend mode="normal" in="SourceGraphic" in2="effect1_dropShadow_160_1356" result="shape"/>
</filter>
</defs>
</svg>
