<svg width="32" height="32" viewBox="0 0 32 32" fill="none" xmlns="http://www.w3.org/2000/svg">
<g id="calculator 1" clip-path="url(#clip0_117_2817)">
<g id="Group">
<g id="Group_2">
<path id="Vector" d="M8 3.73333V0H3.73333V3.73333H0V8H3.73333V11.7333H8V8H11.7333V3.73333H8ZM10.6667 6.93333H6.93333V10.6667H4.8V6.93333H1.06667V4.8H4.8V1.06667H6.93333V4.8H10.6667V6.93333Z" fill="#FF7065"/>
</g>
</g>
<g id="Group_3">
<g id="Group_4">
<path id="Vector_2" d="M20.2667 3.73315V7.99982H32.0001V3.73315H20.2667ZM30.9334 6.93315H21.3334V4.79982H30.9334V6.93315Z" fill="#FF7065"/>
</g>
</g>
<g id="Group_5">
<g id="Group_6">
<path id="Vector_3" d="M20.2667 22.9333V27.2H32.0001V22.9333H20.2667ZM30.9334 26.1334H21.3334V24H30.9334V26.1334Z" fill="#FF7065"/>
</g>
</g>
<g id="Group_7">
<g id="Group_8">
<path id="Vector_4" d="M26.1333 18.1333C24.9551 18.1333 24 19.0884 24 20.2666C24 21.4448 24.9551 22.4 26.1333 22.4C27.3115 22.4 28.2667 21.4448 28.2667 20.2666C28.2667 19.0884 27.3115 18.1333 26.1333 18.1333ZM26.1333 21.3333C25.5442 21.3333 25.0667 20.8558 25.0667 20.2666C25.0667 19.6775 25.5442 19.2 26.1333 19.2C26.7225 19.2 27.2 19.6775 27.2 20.2666C27.2 20.8558 26.7225 21.3333 26.1333 21.3333Z" fill="#FF7065"/>
</g>
</g>
<g id="Group_9">
<g id="Group_10">
<path id="Vector_5" d="M26.1333 27.7334C24.9551 27.7334 24 28.6885 24 29.8667C24 31.0449 24.9551 32.0001 26.1333 32.0001C27.3115 32.0001 28.2667 31.0449 28.2667 29.8667C28.2667 28.6885 27.3115 27.7334 26.1333 27.7334ZM26.1333 30.9334C25.5442 30.9334 25.0667 30.4559 25.0667 29.8667C25.0667 29.2776 25.5442 28.8001 26.1333 28.8001C26.7225 28.8001 27.2 29.2776 27.2 29.8667C27.2 30.4559 26.7225 30.9334 26.1333 30.9334Z" fill="#FF7065"/>
</g>
</g>
<g id="Group_11">
<g id="Group_12">
<path id="Vector_6" d="M16.5333 15.4667V5.8667H15.4666V15.4667H5.86664V16.5334H15.4666V26.1334H16.5333V16.5334H26.1333V15.4667H16.5333Z" fill="#FF7065"/>
</g>
</g>
<g id="Group_13">
<g id="Group_14">
<path id="Vector_7" d="M12.4875 21.8666L9.0667 18.4458L6.40003 21.1125L3.73763 18.4501L0.312561 21.7983L2.98349 24.529L0.312561 27.1999L3.73336 30.6207L6.40003 27.9541L9.0667 30.6207L12.4875 27.1999L9.82083 24.5333L12.4875 21.8666ZM10.9792 27.1999L9.0667 29.1125L6.40003 26.4458L3.73336 29.1125L1.82083 27.1999L4.48323 24.5375L1.82083 21.8133L3.72909 19.9466L6.40003 22.6207L9.0667 19.9541L10.9792 21.8666L8.31256 24.5333L10.9792 27.1999Z" fill="#FF7065"/>
</g>
</g>
</g>
<defs>
<clipPath id="clip0_117_2817">
<rect width="32" height="32" fill="white"/>
</clipPath>
</defs>
</svg>
