<svg width="84" height="84" viewBox="0 0 84 84" fill="none" xmlns="http://www.w3.org/2000/svg">
<g filter="url(#filter0_d_154_1337)">
<rect x="15" y="11" width="54" height="54" rx="16" fill="#D3D5FE"/>
</g>
<path d="M42 34.875C40.2769 34.875 38.875 36.2769 38.875 38C38.875 39.7231 40.2769 41.125 42 41.125C43.7231 41.125 45.125 39.7231 45.125 38C45.125 36.2769 43.7231 34.875 42 34.875Z" fill="#767DFF"/>
<path d="M55.5316 30.1875C54.1287 27.7574 50.2945 27.9149 47.5364 28.4784C46.6716 25.7351 44.8771 22 42 22C39.1234 22 37.3288 25.734 36.4636 28.4784C33.6997 27.9137 29.8703 27.7593 28.4684 30.1875C27.0581 32.6301 29.1398 35.8922 31.0158 38C29.1404 40.107 27.0579 43.3695 28.4684 45.8125C29.8684 48.2375 33.6981 48.0866 36.4636 47.5216C37.3284 50.2649 39.1229 54 42 54C44.8766 54 46.6713 50.266 47.5364 47.5216C50.2851 48.0832 54.1256 48.2479 55.5316 45.8125C56.9419 43.3699 54.8603 40.1078 52.9842 38C54.8596 35.893 56.9421 32.6305 55.5316 30.1875ZM42 23.25C44.1359 23.25 45.6591 26.7056 46.3139 28.7649C44.9226 29.1314 43.4689 29.6478 42 30.2969C40.5311 29.6478 39.0773 29.1314 37.6861 28.7649C38.3384 26.7137 39.8614 23.25 42 23.25ZM47.625 38C47.625 39.066 47.5759 40.1284 47.4818 41.1674C45.7783 42.3681 43.8943 43.456 42 44.3321C40.1084 43.4573 38.2241 42.3697 36.5182 41.1674C36.4241 40.1284 36.375 39.066 36.375 38C36.375 36.934 36.4241 35.8716 36.5182 34.8326C38.2218 33.6319 40.1058 32.544 42 31.6679C43.8916 32.5428 45.7759 33.6302 47.4818 34.8326C47.5759 35.8716 47.625 36.934 47.625 38ZM48.8116 35.8219C49.7111 36.5289 50.5359 37.2594 51.2698 38C50.5359 38.7406 49.7111 39.4711 48.8116 40.1781C48.8534 39.4608 48.875 38.7336 48.875 38C48.875 37.2664 48.8534 36.5392 48.8116 35.8219ZM47.2928 42.8084C47.1344 43.9362 46.9217 45.021 46.6591 46.0343C45.643 45.7683 44.5893 45.4167 43.5184 44.9876C44.8144 44.3384 46.0812 43.6071 47.2928 42.8084ZM40.4816 44.9876C39.4108 45.4167 38.357 45.7683 37.3409 46.0343C37.0784 45.021 36.8656 43.9363 36.7073 42.8084C37.9175 43.6063 39.1841 44.3377 40.4816 44.9876ZM35.1884 40.1781C34.2889 39.4711 33.4641 38.7406 32.7303 38C33.4641 37.2594 34.2889 36.5289 35.1884 35.8219C35.1466 36.5392 35.125 37.2664 35.125 38C35.125 38.7336 35.1466 39.4608 35.1884 40.1781ZM36.7073 33.1916C36.8656 32.0637 37.0783 30.979 37.3409 29.9657C38.357 30.2317 39.4108 30.5833 40.4816 31.0124C39.1856 31.6616 37.9188 32.3929 36.7073 33.1916ZM43.5183 31.0124C44.5892 30.5833 45.6429 30.2317 46.6591 29.9657C46.9216 30.979 47.1343 32.0637 47.2927 33.1916C46.0825 32.3937 44.8159 31.6623 43.5183 31.0124ZM29.5509 30.8125C30.5968 29.001 34.0454 29.2713 36.1183 29.6832C35.7576 31.0732 35.4905 32.5783 35.3246 34.1516C34.0431 35.0885 32.8812 36.0774 31.8764 37.087C30.4819 35.5011 28.4989 32.6346 29.5509 30.8125ZM29.5509 45.1875C28.5002 43.3675 30.4769 40.5044 31.8764 38.913C32.8811 39.9226 34.043 40.9115 35.3246 41.8484C35.4904 43.4217 35.7575 44.9268 36.1182 46.3167C34.0508 46.7276 30.5986 47.0022 29.5509 45.1875ZM42 52.75C39.8641 52.75 38.3409 49.2944 37.6861 47.2351C39.0773 46.8686 40.5311 46.3522 42 45.7031C43.4689 46.3522 44.9227 46.8686 46.3139 47.2351C45.6616 49.2863 44.1386 52.75 42 52.75ZM54.4491 45.1875C53.4014 47.0024 49.9486 46.7275 47.8818 46.3167C48.2424 44.9268 48.5095 43.4217 48.6754 41.8484C49.9569 40.9115 51.1188 39.9226 52.1236 38.913C53.5181 40.4989 55.5011 43.3654 54.4491 45.1875ZM48.6754 34.1516C48.5095 32.5783 48.2424 31.0732 47.8818 29.6832C49.9639 29.2695 53.4059 29.0057 54.4491 30.8125C55.4998 32.6325 53.5231 35.4956 52.1236 37.087C51.1188 36.0774 49.9569 35.0885 48.6754 34.1516Z" fill="#767DFF"/>
<defs>
<filter id="filter0_d_154_1337" x="0" y="0" width="84" height="84" filterUnits="userSpaceOnUse" color-interpolation-filters="sRGB">
<feFlood flood-opacity="0" result="BackgroundImageFix"/>
<feColorMatrix in="SourceAlpha" type="matrix" values="0 0 0 0 0 0 0 0 0 0 0 0 0 0 0 0 0 0 127 0" result="hardAlpha"/>
<feOffset dy="4"/>
<feGaussianBlur stdDeviation="7.5"/>
<feComposite in2="hardAlpha" operator="out"/>
<feColorMatrix type="matrix" values="0 0 0 0 0 0 0 0 0 0 0 0 0 0 0 0 0 0 0.05 0"/>
<feBlend mode="normal" in2="BackgroundImageFix" result="effect1_dropShadow_154_1337"/>
<feBlend mode="normal" in="SourceGraphic" in2="effect1_dropShadow_154_1337" result="shape"/>
</filter>
</defs>
</svg>
