<svg width="84" height="84" viewBox="0 0 84 84" fill="none" xmlns="http://www.w3.org/2000/svg">
<g filter="url(#filter0_d_160_1349)">
<rect x="15" y="11" width="54" height="54" rx="16" fill="#FFEFDA"/>
</g>
<g clip-path="url(#clip0_160_1349)">
<path d="M51 49H48.9374V47.8437C48.9374 46.6334 48.4908 45.4776 47.6941 44.5838C47.7946 44.4928 47.8932 44.3989 47.9897 44.3023C49.5278 42.7642 50.3749 40.7258 50.3749 38.5625C50.3749 37.4808 50.164 36.4313 49.7481 35.44C49.7963 35.2224 49.8225 34.9966 49.8225 34.7647C49.8225 33.8355 49.4144 33.0003 48.7686 32.4274L48.9575 32.1002C49.3648 31.3946 49.2596 30.5317 48.7587 29.9446L49.5213 28.6237C49.6291 28.6233 49.7376 28.6092 49.8446 28.5805C50.1675 28.494 50.4371 28.2873 50.6037 27.9988L51.5412 26.375C51.7138 26.076 51.6114 25.6938 51.3125 25.5212L45.3585 22.0837C45.215 22.0008 45.0442 21.9784 44.8843 22.0213C44.7241 22.0642 44.5877 22.1689 44.5048 22.3125L43.5673 23.9363C43.3366 24.3359 43.3533 24.8108 43.5681 25.1849L42.805 26.5065C42.5338 26.4564 42.2522 26.4669 41.9773 26.5405C41.4926 26.6704 41.0881 26.9802 40.8384 27.4127L37.4009 33.3667C37.1512 33.7992 37.0852 34.3043 37.215 34.789C37.2887 35.064 37.4204 35.3131 37.5994 35.5228L36.9209 36.698C36.7543 36.9866 36.7102 37.3234 36.7968 37.6464C36.8834 37.9693 37.0899 38.239 37.3785 38.4055L41.1674 40.593C41.3637 40.7064 41.5783 40.7603 41.7902 40.7603C42.2225 40.7603 42.6436 40.5361 42.8748 40.1355L43.5536 38.9598C43.6645 38.9803 43.7772 38.9913 43.8905 38.9913C44.0539 38.9913 44.2187 38.9698 44.381 38.9263C44.8658 38.7964 45.2703 38.4866 45.52 38.0541L45.7082 37.7282C45.9813 37.8196 46.271 37.8745 46.5717 37.8865C46.6068 38.1095 46.6249 38.3356 46.6249 38.5626C46.6249 39.7244 46.1679 40.8211 45.3382 41.6509C44.5085 42.4806 43.4117 42.9375 42.2499 42.9375H40.0623C39.7172 42.9375 39.4373 43.2173 39.4373 43.5625C39.4373 43.9077 39.7172 44.1875 40.0623 44.1875H42.2499C42.5945 44.1875 42.8749 44.4679 42.8749 44.8125C42.8749 45.1571 42.5945 45.4375 42.2499 45.4375H32.2502C31.9056 45.4375 31.6252 45.1571 31.6252 44.8125C31.6252 44.4679 31.9056 44.1875 32.2502 44.1875H34.4373C34.7824 44.1875 35.0623 43.9077 35.0623 43.5625C35.0623 43.2173 34.7824 42.9375 34.4373 42.9375H32.2502C31.2163 42.9375 30.3752 43.7786 30.3752 44.8125C30.3752 45.8464 31.2163 46.6875 32.2502 46.6875H33.8303V49H31.0001C29.9662 49 29.1251 49.8411 29.1251 50.875V53.375C29.1251 53.7202 29.4049 54 29.7501 54H52.25C52.5951 54 52.875 53.7202 52.875 53.375V50.875C52.875 49.8411 52.0339 49 51 49ZM47.6874 47.8437V49H46.4374V47.8437C46.4374 47.0954 46.0939 46.4258 45.5564 45.9841C45.9538 45.806 46.3372 45.5951 46.7035 45.3531C47.3328 46.0276 47.6874 46.9142 47.6874 47.8437ZM42.2499 46.6875H44.0312C44.6687 46.6875 45.1874 47.2062 45.1874 47.8437V49H40.7052V46.6875H42.2499ZM46.6975 36.6396C45.6636 36.6396 44.8225 35.7985 44.8225 34.7646C44.8225 33.7308 45.6636 32.8897 46.6975 32.8897C47.7313 32.8897 48.5725 33.7308 48.5725 34.7646C48.5725 35.7985 47.7313 36.6396 46.6975 36.6396ZM43.941 27.0389L44.566 25.9563L48.355 28.1438L47.7299 29.2264L43.941 27.0389ZM45.2748 23.4787L50.1461 26.2912L49.5212 27.3737L44.6498 24.5612L45.2748 23.4787ZM38.0035 37.323L38.6285 36.2405L42.4174 38.428L41.7924 39.5105L38.0035 37.323ZM44.4375 37.4291C44.3547 37.5725 44.2198 37.6754 44.0575 37.7189C43.8954 37.7623 43.7272 37.7407 43.5837 37.6579L38.7129 34.8457C38.7127 34.8456 38.7125 34.8455 38.7124 34.8454C38.7123 34.8453 38.7122 34.8453 38.712 34.8453C38.5688 34.7625 38.466 34.6276 38.4225 34.4655C38.3791 34.3033 38.4007 34.135 38.4835 33.9917L41.921 28.0377C42.0038 27.8943 42.1387 27.7914 42.301 27.7479C42.463 27.7045 42.6313 27.7261 42.7748 27.8089L47.6462 30.6214C47.9446 30.7937 48.0473 31.1767 47.875 31.4752L47.6868 31.801C47.3757 31.6968 47.0433 31.6396 46.6975 31.6396C44.9744 31.6396 43.5725 33.0415 43.5725 34.7646C43.5725 35.6938 43.9806 36.529 44.6264 37.1019L44.4375 37.4291ZM43.9075 43.9374C44.77 43.6703 45.5623 43.1946 46.2222 42.5348C47.288 41.4689 47.8749 40.0583 47.8749 38.5626C47.8749 38.2684 47.8513 37.9753 47.8055 37.6861C48.234 37.523 48.6175 37.2683 48.9323 36.946C49.0602 37.4717 49.1249 38.0121 49.1249 38.5625C49.1249 40.3919 48.4078 42.1164 47.1058 43.4184C46.2515 44.2728 45.2153 44.8752 44.087 45.1885C44.1118 45.067 44.1248 44.9413 44.1248 44.8125C44.1249 44.4966 44.046 44.1989 43.9075 43.9374ZM35.0803 46.6875H39.4552V49H35.0803V46.6875ZM51.625 52.75H30.3751V50.875C30.3751 50.5304 30.6554 50.25 31.0001 50.25H51C51.3446 50.25 51.625 50.5304 51.625 50.875V52.75Z" fill="#FFB46D"/>
<path d="M37.8751 43.5625C37.8751 43.2173 37.5952 42.9375 37.2501 42.9375H37.2496C36.9044 42.9375 36.6248 43.2173 36.6248 43.5625C36.6248 43.9077 36.9049 44.1875 37.2501 44.1875C37.5953 44.1875 37.8751 43.9077 37.8751 43.5625Z" fill="#FFB46D"/>
</g>
<defs>
<filter id="filter0_d_160_1349" x="0" y="0" width="84" height="84" filterUnits="userSpaceOnUse" color-interpolation-filters="sRGB">
<feFlood flood-opacity="0" result="BackgroundImageFix"/>
<feColorMatrix in="SourceAlpha" type="matrix" values="0 0 0 0 0 0 0 0 0 0 0 0 0 0 0 0 0 0 127 0" result="hardAlpha"/>
<feOffset dy="4"/>
<feGaussianBlur stdDeviation="7.5"/>
<feComposite in2="hardAlpha" operator="out"/>
<feColorMatrix type="matrix" values="0 0 0 0 0 0 0 0 0 0 0 0 0 0 0 0 0 0 0.05 0"/>
<feBlend mode="normal" in2="BackgroundImageFix" result="effect1_dropShadow_160_1349"/>
<feBlend mode="normal" in="SourceGraphic" in2="effect1_dropShadow_160_1349" result="shape"/>
</filter>
<clipPath id="clip0_160_1349">
<rect width="32" height="32" fill="white" transform="translate(25 22)"/>
</clipPath>
</defs>
</svg>
