<svg width="78" height="78" viewBox="0 0 78 78" fill="none" xmlns="http://www.w3.org/2000/svg">
<path d="M45.69 34.5298C45.12 34.3798 44.45 34.2998 43.65 34.2998C42.54 34.2998 42.13 34.5698 41.56 34.9998C41.53 35.0198 41.5 35.0498 41.47 35.0798L40.52 36.0898C39.73 36.9398 38.28 36.9398 37.48 36.0898L36.53 35.0898C36.5 35.0498 36.47 35.0198 36.44 34.9998C35.86 34.5698 35.45 34.2998 34.35 34.2998C33.55 34.2998 32.88 34.3698 32.31 34.5298C29.93 35.1698 29.93 37.0598 29.93 38.7198V39.6498C29.93 42.1598 29.93 44.9998 35.28 44.9998H42.72C46.27 44.9998 48.07 43.1998 48.07 39.6498V38.7198C48.07 37.0598 48.07 35.1698 45.69 34.5298Z" fill="#767DFF"/>
<path opacity="0.4" d="M41.79 25H36.21C31.79 25 31.79 27.35 31.79 29.42V35.21C31.79 35.43 31.89 35.63 32.06 35.76C32.23 35.89 32.46 35.94 32.67 35.88C33.12 35.76 33.68 35.7 34.35 35.7C35.02 35.7 35.16 35.78 35.56 36.08L36.47 37.04C37.12 37.74 38.05 38.14 39.01 38.14C39.97 38.14 40.89 37.74 41.55 37.04L42.46 36.08C42.86 35.78 43 35.7 43.67 35.7C44.34 35.7 44.9 35.76 45.35 35.88C45.56 35.94 45.78 35.89 45.96 35.76C46.13 35.63 46.23 35.42 46.23 35.21V29.42C46.21 27.35 46.21 25 41.79 25Z" fill="#767DFF"/>
<path d="M40.55 32.9098H37.45C37.06 32.9098 36.75 32.5998 36.75 32.2098C36.75 31.8198 37.06 31.5098 37.45 31.5098H40.55C40.94 31.5098 41.25 31.8198 41.25 32.2098C41.25 32.5898 40.93 32.9098 40.55 32.9098Z" fill="#767DFF"/>
<path d="M41.33 30.1202H36.67C36.28 30.1202 35.97 29.8102 35.97 29.4202C35.97 29.0302 36.28 28.7202 36.67 28.7202H41.32C41.71 28.7202 42.02 29.0302 42.02 29.4202C42.02 29.8002 41.71 30.1202 41.33 30.1202Z" fill="#767DFF"/>
<g filter="url(#filter0_d_156_697)">
<rect x="15.5" y="11.5" width="47" height="47" rx="15.5" stroke="#767DFF" shape-rendering="crispEdges"/>
</g>
<defs>
<filter id="filter0_d_156_697" x="0" y="0" width="78" height="78" filterUnits="userSpaceOnUse" color-interpolation-filters="sRGB">
<feFlood flood-opacity="0" result="BackgroundImageFix"/>
<feColorMatrix in="SourceAlpha" type="matrix" values="0 0 0 0 0 0 0 0 0 0 0 0 0 0 0 0 0 0 127 0" result="hardAlpha"/>
<feOffset dy="4"/>
<feGaussianBlur stdDeviation="7.5"/>
<feComposite in2="hardAlpha" operator="out"/>
<feColorMatrix type="matrix" values="0 0 0 0 0 0 0 0 0 0 0 0 0 0 0 0 0 0 0.05 0"/>
<feBlend mode="normal" in2="BackgroundImageFix" result="effect1_dropShadow_156_697"/>
<feBlend mode="normal" in="SourceGraphic" in2="effect1_dropShadow_156_697" result="shape"/>
</filter>
</defs>
</svg>
